<mxfile host="app.diagrams.net" modified="2022-04-15T12:59:39.990Z" agent="5.0 (Windows)" etag="HktY-rIlvrhzZR42E3VE" version="17.4.4" type="github" pages="2">
  <diagram id="-1cNwW22x8Lkcdjjw_Vo" name="Use case">
    <mxGraphModel dx="2634" dy="1529" grid="0" gridSize="10" guides="1" tooltips="1" connect="1" arrows="1" fold="1" page="0" pageScale="1" pageWidth="850" pageHeight="1100" math="0" shadow="0">
      <root>
        <mxCell id="0" />
        <mxCell id="1" parent="0" />
        <mxCell id="4kPWv2rLGDj7vnWJvMpO-1" value="ADMIN" style="shape=umlActor;verticalLabelPosition=bottom;verticalAlign=top;html=1;outlineConnect=0;fontSize=20;" parent="1" vertex="1">
          <mxGeometry x="10" y="230" width="40" height="90" as="geometry" />
        </mxCell>
        <mxCell id="4kPWv2rLGDj7vnWJvMpO-11" value="Mengelola Data User" style="ellipse;whiteSpace=wrap;html=1;fontSize=20;" parent="1" vertex="1">
          <mxGeometry x="237.5" y="90" width="140" height="100" as="geometry" />
        </mxCell>
        <mxCell id="4kPWv2rLGDj7vnWJvMpO-12" value="Mengelola Data Kampus" style="ellipse;whiteSpace=wrap;html=1;fontSize=23;" parent="1" vertex="1">
          <mxGeometry x="235" y="400" width="145" height="110" as="geometry" />
        </mxCell>
        <mxCell id="4kPWv2rLGDj7vnWJvMpO-16" value="" style="endArrow=none;html=1;rounded=0;fontSize=20;entryX=0;entryY=1;entryDx=0;entryDy=0;" parent="1" target="4kPWv2rLGDj7vnWJvMpO-11" edge="1">
          <mxGeometry width="50" height="50" relative="1" as="geometry">
            <mxPoint x="80" y="280" as="sourcePoint" />
            <mxPoint x="450" y="300" as="targetPoint" />
          </mxGeometry>
        </mxCell>
        <mxCell id="4kPWv2rLGDj7vnWJvMpO-17" value="" style="endArrow=none;html=1;rounded=0;fontSize=20;entryX=0;entryY=0.5;entryDx=0;entryDy=0;" parent="1" target="4kPWv2rLGDj7vnWJvMpO-12" edge="1">
          <mxGeometry width="50" height="50" relative="1" as="geometry">
            <mxPoint x="80" y="290" as="sourcePoint" />
            <mxPoint x="299.03805922287484" y="155.3553390593272" as="targetPoint" />
          </mxGeometry>
        </mxCell>
        <mxCell id="4kPWv2rLGDj7vnWJvMpO-19" value="" style="endArrow=open;dashed=1;html=1;rounded=0;fontSize=23;endFill=0;strokeWidth=3;entryX=1.006;entryY=0.32;entryDx=0;entryDy=0;entryPerimeter=0;exitX=0;exitY=0.5;exitDx=0;exitDy=0;" parent="1" source="4kPWv2rLGDj7vnWJvMpO-22" target="4kPWv2rLGDj7vnWJvMpO-11" edge="1">
          <mxGeometry width="50" height="50" relative="1" as="geometry">
            <mxPoint x="550" y="80" as="sourcePoint" />
            <mxPoint x="440" y="100" as="targetPoint" />
            <Array as="points" />
          </mxGeometry>
        </mxCell>
        <mxCell id="4kPWv2rLGDj7vnWJvMpO-22" value="Menambah" style="ellipse;whiteSpace=wrap;html=1;fontSize=23;" parent="1" vertex="1">
          <mxGeometry x="560" y="-20" width="120" height="80" as="geometry" />
        </mxCell>
        <mxCell id="4kPWv2rLGDj7vnWJvMpO-23" value="" style="endArrow=open;dashed=1;html=1;rounded=0;fontSize=23;endFill=0;entryX=1;entryY=0.5;entryDx=0;entryDy=0;strokeWidth=3;exitX=0;exitY=0.5;exitDx=0;exitDy=0;" parent="1" source="4kPWv2rLGDj7vnWJvMpO-25" target="4kPWv2rLGDj7vnWJvMpO-11" edge="1">
          <mxGeometry width="50" height="50" relative="1" as="geometry">
            <mxPoint x="560" y="140" as="sourcePoint" />
            <mxPoint x="540" y="160" as="targetPoint" />
          </mxGeometry>
        </mxCell>
        <mxCell id="4kPWv2rLGDj7vnWJvMpO-24" value="" style="endArrow=open;dashed=1;html=1;rounded=0;fontSize=23;endFill=0;entryX=0.982;entryY=0.737;entryDx=0;entryDy=0;strokeWidth=3;entryPerimeter=0;exitX=0;exitY=0.5;exitDx=0;exitDy=0;" parent="1" source="4kPWv2rLGDj7vnWJvMpO-26" target="4kPWv2rLGDj7vnWJvMpO-11" edge="1">
          <mxGeometry width="50" height="50" relative="1" as="geometry">
            <mxPoint x="540" y="190" as="sourcePoint" />
            <mxPoint x="452.5" y="170" as="targetPoint" />
          </mxGeometry>
        </mxCell>
        <mxCell id="4kPWv2rLGDj7vnWJvMpO-25" value="Menghapus" style="ellipse;whiteSpace=wrap;html=1;fontSize=23;" parent="1" vertex="1">
          <mxGeometry x="580" y="90" width="120" height="80" as="geometry" />
        </mxCell>
        <mxCell id="4kPWv2rLGDj7vnWJvMpO-26" value="Mengedit" style="ellipse;whiteSpace=wrap;html=1;fontSize=23;" parent="1" vertex="1">
          <mxGeometry x="580" y="210" width="120" height="80" as="geometry" />
        </mxCell>
        <mxCell id="4kPWv2rLGDj7vnWJvMpO-27" value="&amp;lt;&amp;lt;extends&amp;gt;&amp;gt;" style="text;html=1;align=center;verticalAlign=middle;resizable=0;points=[];autosize=1;strokeColor=none;fillColor=none;fontSize=23;" parent="1" vertex="1">
          <mxGeometry x="404" y="201" width="144" height="32" as="geometry" />
        </mxCell>
        <mxCell id="4kPWv2rLGDj7vnWJvMpO-29" value="&amp;lt;&amp;lt;extends&amp;gt;&amp;gt;" style="text;html=1;align=center;verticalAlign=middle;resizable=0;points=[];autosize=1;strokeColor=none;fillColor=none;fontSize=23;" parent="1" vertex="1">
          <mxGeometry x="404" y="21" width="144" height="32" as="geometry" />
        </mxCell>
        <mxCell id="4kPWv2rLGDj7vnWJvMpO-30" value="&amp;lt;&amp;lt;extends&amp;gt;&amp;gt;" style="text;html=1;align=center;verticalAlign=middle;resizable=0;points=[];autosize=1;strokeColor=none;fillColor=none;fontSize=23;" parent="1" vertex="1">
          <mxGeometry x="434" y="101" width="144" height="32" as="geometry" />
        </mxCell>
        <mxCell id="4kPWv2rLGDj7vnWJvMpO-31" value="" style="endArrow=open;dashed=1;html=1;rounded=0;fontSize=23;endFill=0;strokeWidth=3;exitX=0;exitY=0.5;exitDx=0;exitDy=0;" parent="1" source="4kPWv2rLGDj7vnWJvMpO-32" edge="1" target="4kPWv2rLGDj7vnWJvMpO-12">
          <mxGeometry width="50" height="50" relative="1" as="geometry">
            <mxPoint x="570" y="420" as="sourcePoint" />
            <mxPoint x="433.34000000000015" y="452" as="targetPoint" />
            <Array as="points" />
          </mxGeometry>
        </mxCell>
        <mxCell id="4kPWv2rLGDj7vnWJvMpO-32" value="Menambah" style="ellipse;whiteSpace=wrap;html=1;fontSize=23;" parent="1" vertex="1">
          <mxGeometry x="580" y="320" width="120" height="80" as="geometry" />
        </mxCell>
        <mxCell id="4kPWv2rLGDj7vnWJvMpO-33" value="" style="endArrow=open;dashed=1;html=1;rounded=0;fontSize=23;endFill=0;entryX=1;entryY=0.573;entryDx=0;entryDy=0;strokeWidth=3;exitX=0;exitY=0.5;exitDx=0;exitDy=0;entryPerimeter=0;" parent="1" source="4kPWv2rLGDj7vnWJvMpO-34" edge="1" target="4kPWv2rLGDj7vnWJvMpO-12">
          <mxGeometry width="50" height="50" relative="1" as="geometry">
            <mxPoint x="580" y="480" as="sourcePoint" />
            <mxPoint x="432.5" y="470" as="targetPoint" />
          </mxGeometry>
        </mxCell>
        <mxCell id="4kPWv2rLGDj7vnWJvMpO-34" value="Menghapus" style="ellipse;whiteSpace=wrap;html=1;fontSize=23;" parent="1" vertex="1">
          <mxGeometry x="583" y="421" width="120" height="80" as="geometry" />
        </mxCell>
        <mxCell id="4kPWv2rLGDj7vnWJvMpO-35" value="Mengedit" style="ellipse;whiteSpace=wrap;html=1;fontSize=23;" parent="1" vertex="1">
          <mxGeometry x="600" y="530" width="120" height="80" as="geometry" />
        </mxCell>
        <mxCell id="4kPWv2rLGDj7vnWJvMpO-36" value="&amp;lt;&amp;lt;extends&amp;gt;&amp;gt;" style="text;html=1;align=center;verticalAlign=middle;resizable=0;points=[];autosize=1;strokeColor=none;fillColor=none;fontSize=23;" parent="1" vertex="1">
          <mxGeometry x="406.5" y="531" width="144" height="32" as="geometry" />
        </mxCell>
        <mxCell id="4kPWv2rLGDj7vnWJvMpO-37" value="&amp;lt;&amp;lt;extends&amp;gt;&amp;gt;" style="text;html=1;align=center;verticalAlign=middle;resizable=0;points=[];autosize=1;strokeColor=none;fillColor=none;fontSize=23;" parent="1" vertex="1">
          <mxGeometry x="400" y="361" width="144" height="32" as="geometry" />
        </mxCell>
        <mxCell id="4kPWv2rLGDj7vnWJvMpO-38" value="&amp;lt;&amp;lt;extends&amp;gt;&amp;gt;" style="text;html=1;align=center;verticalAlign=middle;resizable=0;points=[];autosize=1;strokeColor=none;fillColor=none;fontSize=23;" parent="1" vertex="1">
          <mxGeometry x="417" y="435" width="144" height="32" as="geometry" />
        </mxCell>
        <mxCell id="4kPWv2rLGDj7vnWJvMpO-39" value="" style="endArrow=classicThin;dashed=1;html=1;rounded=0;fontSize=23;strokeWidth=3;endFill=1;exitX=0;exitY=0.5;exitDx=0;exitDy=0;entryX=1;entryY=1;entryDx=0;entryDy=0;" parent="1" source="4kPWv2rLGDj7vnWJvMpO-35" edge="1" target="4kPWv2rLGDj7vnWJvMpO-12">
          <mxGeometry width="50" height="50" relative="1" as="geometry">
            <mxPoint x="590" y="590" as="sourcePoint" />
            <mxPoint x="430" y="490" as="targetPoint" />
          </mxGeometry>
        </mxCell>
        <mxCell id="4kPWv2rLGDj7vnWJvMpO-40" value="" style="endArrow=open;dashed=1;html=1;rounded=0;fontSize=23;strokeWidth=3;exitX=1;exitY=0.5;exitDx=0;exitDy=0;endFill=0;entryX=0;entryY=0.5;entryDx=0;entryDy=0;" parent="1" source="4kPWv2rLGDj7vnWJvMpO-32" target="4kPWv2rLGDj7vnWJvMpO-44" edge="1">
          <mxGeometry width="50" height="50" relative="1" as="geometry">
            <mxPoint x="720" y="350" as="sourcePoint" />
            <mxPoint x="1090" y="360" as="targetPoint" />
          </mxGeometry>
        </mxCell>
        <mxCell id="4kPWv2rLGDj7vnWJvMpO-60" value="&amp;lt;&amp;lt;include&amp;gt;&amp;gt;" style="edgeLabel;html=1;align=center;verticalAlign=middle;resizable=0;points=[];fontSize=23;" parent="4kPWv2rLGDj7vnWJvMpO-40" vertex="1" connectable="0">
          <mxGeometry x="-0.321" y="4" relative="1" as="geometry">
            <mxPoint x="1" as="offset" />
          </mxGeometry>
        </mxCell>
        <mxCell id="4kPWv2rLGDj7vnWJvMpO-41" value="" style="endArrow=open;dashed=1;html=1;rounded=0;fontSize=23;strokeWidth=3;endFill=0;exitX=1;exitY=0.5;exitDx=0;exitDy=0;" parent="1" target="4kPWv2rLGDj7vnWJvMpO-44" edge="1" source="4kPWv2rLGDj7vnWJvMpO-34">
          <mxGeometry width="50" height="50" relative="1" as="geometry">
            <mxPoint x="720" y="470" as="sourcePoint" />
            <mxPoint x="1070" y="570" as="targetPoint" />
          </mxGeometry>
        </mxCell>
        <mxCell id="4kPWv2rLGDj7vnWJvMpO-61" value="&amp;lt;&amp;lt;include&amp;gt;&amp;gt;" style="edgeLabel;html=1;align=center;verticalAlign=middle;resizable=0;points=[];fontSize=23;" parent="4kPWv2rLGDj7vnWJvMpO-41" vertex="1" connectable="0">
          <mxGeometry x="-0.2004" relative="1" as="geometry">
            <mxPoint as="offset" />
          </mxGeometry>
        </mxCell>
        <mxCell id="4kPWv2rLGDj7vnWJvMpO-42" value="&#xa;&amp;lt;&amp;lt;include&amp;gt;&amp;gt;&#xa;&#xa;" style="endArrow=open;dashed=1;html=1;rounded=0;fontSize=23;strokeWidth=3;endFill=0;entryX=0;entryY=1;entryDx=0;entryDy=0;" parent="1" target="4kPWv2rLGDj7vnWJvMpO-44" edge="1">
          <mxGeometry x="-0.3155" width="50" height="50" relative="1" as="geometry">
            <mxPoint x="730" y="570" as="sourcePoint" />
            <mxPoint x="1080" y="670" as="targetPoint" />
            <mxPoint y="1" as="offset" />
          </mxGeometry>
        </mxCell>
        <mxCell id="4kPWv2rLGDj7vnWJvMpO-43" value="" style="endArrow=open;dashed=1;html=1;rounded=0;fontSize=23;strokeWidth=3;exitX=1;exitY=0.5;exitDx=0;exitDy=0;endFill=0;entryX=-0.008;entryY=0.37;entryDx=0;entryDy=0;entryPerimeter=0;" parent="1" source="4kPWv2rLGDj7vnWJvMpO-26" target="4kPWv2rLGDj7vnWJvMpO-44" edge="1">
          <mxGeometry width="50" height="50" relative="1" as="geometry">
            <mxPoint x="750" y="380" as="sourcePoint" />
            <mxPoint x="1090" y="340" as="targetPoint" />
          </mxGeometry>
        </mxCell>
        <mxCell id="4kPWv2rLGDj7vnWJvMpO-59" value="&amp;lt;&amp;lt;include&amp;gt;&amp;gt;" style="edgeLabel;html=1;align=center;verticalAlign=middle;resizable=0;points=[];fontSize=23;" parent="4kPWv2rLGDj7vnWJvMpO-43" vertex="1" connectable="0">
          <mxGeometry x="-0.4982" y="1" relative="1" as="geometry">
            <mxPoint as="offset" />
          </mxGeometry>
        </mxCell>
        <mxCell id="4kPWv2rLGDj7vnWJvMpO-44" value="&lt;font style=&quot;font-size: 29px&quot;&gt;Login&lt;/font&gt;" style="ellipse;whiteSpace=wrap;html=1;fontSize=23;" parent="1" vertex="1">
          <mxGeometry x="1080" y="250" width="200" height="100" as="geometry" />
        </mxCell>
        <mxCell id="4kPWv2rLGDj7vnWJvMpO-45" value="" style="endArrow=open;dashed=1;html=1;rounded=0;fontSize=23;strokeWidth=3;exitX=1;exitY=0.5;exitDx=0;exitDy=0;endFill=0;entryX=0;entryY=0;entryDx=0;entryDy=0;" parent="1" source="4kPWv2rLGDj7vnWJvMpO-25" target="4kPWv2rLGDj7vnWJvMpO-44" edge="1">
          <mxGeometry width="50" height="50" relative="1" as="geometry">
            <mxPoint x="750" y="140" as="sourcePoint" />
            <mxPoint x="1138.4" y="217" as="targetPoint" />
          </mxGeometry>
        </mxCell>
        <mxCell id="4kPWv2rLGDj7vnWJvMpO-58" value="&amp;lt;&amp;lt;include&amp;gt;&amp;gt;" style="edgeLabel;html=1;align=center;verticalAlign=middle;resizable=0;points=[];fontSize=23;" parent="4kPWv2rLGDj7vnWJvMpO-45" vertex="1" connectable="0">
          <mxGeometry x="-0.4247" y="-3" relative="1" as="geometry">
            <mxPoint y="1" as="offset" />
          </mxGeometry>
        </mxCell>
        <mxCell id="4kPWv2rLGDj7vnWJvMpO-46" value="" style="endArrow=open;dashed=1;html=1;rounded=0;fontSize=23;strokeWidth=3;exitX=1;exitY=0.5;exitDx=0;exitDy=0;endFill=0;entryX=0.35;entryY=0.037;entryDx=0;entryDy=0;entryPerimeter=0;" parent="1" source="4kPWv2rLGDj7vnWJvMpO-22" target="4kPWv2rLGDj7vnWJvMpO-44" edge="1">
          <mxGeometry width="50" height="50" relative="1" as="geometry">
            <mxPoint x="710" y="140" as="sourcePoint" />
            <mxPoint x="1129.2893218813456" y="314.64466094067257" as="targetPoint" />
          </mxGeometry>
        </mxCell>
        <mxCell id="4kPWv2rLGDj7vnWJvMpO-57" value="&amp;lt;&amp;lt;include&amp;gt;&amp;gt;" style="edgeLabel;html=1;align=center;verticalAlign=middle;resizable=0;points=[];fontSize=23;" parent="4kPWv2rLGDj7vnWJvMpO-46" vertex="1" connectable="0">
          <mxGeometry x="-0.2639" y="1" relative="1" as="geometry">
            <mxPoint as="offset" />
          </mxGeometry>
        </mxCell>
        <mxCell id="ml67itCTCTXLGi3z6Jt4-2" value="PIHAK KAMPUS" style="shape=umlActor;verticalLabelPosition=bottom;verticalAlign=top;html=1;outlineConnect=0;fontSize=20;strokeColor=default;" vertex="1" parent="1">
          <mxGeometry x="2157" y="507.75" width="40" height="90" as="geometry" />
        </mxCell>
        <mxCell id="ml67itCTCTXLGi3z6Jt4-3" value="Menerima Data Pendaftar" style="ellipse;whiteSpace=wrap;html=1;fontSize=22;strokeColor=default;" vertex="1" parent="1">
          <mxGeometry x="1711" y="501.25" width="158" height="103" as="geometry" />
        </mxCell>
        <mxCell id="ml67itCTCTXLGi3z6Jt4-6" value="Mengirim" style="ellipse;whiteSpace=wrap;html=1;fontSize=23;" vertex="1" parent="1">
          <mxGeometry x="600" y="656" width="120" height="80" as="geometry" />
        </mxCell>
        <mxCell id="ml67itCTCTXLGi3z6Jt4-7" value="" style="endArrow=classicThin;dashed=1;html=1;rounded=0;fontSize=23;strokeWidth=3;endFill=1;exitX=0;exitY=0.5;exitDx=0;exitDy=0;entryX=0.5;entryY=1;entryDx=0;entryDy=0;" edge="1" parent="1" source="ml67itCTCTXLGi3z6Jt4-6" target="4kPWv2rLGDj7vnWJvMpO-12">
          <mxGeometry width="50" height="50" relative="1" as="geometry">
            <mxPoint x="610" y="580" as="sourcePoint" />
            <mxPoint x="369.0573441282495" y="503.6680080961869" as="targetPoint" />
          </mxGeometry>
        </mxCell>
        <mxCell id="ml67itCTCTXLGi3z6Jt4-9" value="&amp;lt;&amp;lt;extends&amp;gt;&amp;gt;" style="text;html=1;align=center;verticalAlign=middle;resizable=0;points=[];autosize=1;strokeColor=none;fillColor=none;fontSize=23;" vertex="1" parent="1">
          <mxGeometry x="333" y="611" width="144" height="32" as="geometry" />
        </mxCell>
        <mxCell id="ml67itCTCTXLGi3z6Jt4-11" value="" style="endArrow=open;dashed=1;html=1;rounded=0;fontSize=23;strokeWidth=3;endFill=0;exitX=0;exitY=1;exitDx=0;exitDy=0;entryX=1;entryY=0.5;entryDx=0;entryDy=0;" edge="1" parent="1" source="ml67itCTCTXLGi3z6Jt4-3" target="ml67itCTCTXLGi3z6Jt4-6">
          <mxGeometry width="50" height="50" relative="1" as="geometry">
            <mxPoint x="1158.0000000000173" y="634.13" as="sourcePoint" />
            <mxPoint x="1551.9740485580405" y="500.9988508336645" as="targetPoint" />
          </mxGeometry>
        </mxCell>
        <mxCell id="ml67itCTCTXLGi3z6Jt4-12" value="&amp;lt;&amp;lt;include&amp;gt;&amp;gt;" style="edgeLabel;html=1;align=center;verticalAlign=middle;resizable=0;points=[];fontSize=23;" vertex="1" connectable="0" parent="ml67itCTCTXLGi3z6Jt4-11">
          <mxGeometry x="-0.2004" relative="1" as="geometry">
            <mxPoint as="offset" />
          </mxGeometry>
        </mxCell>
        <mxCell id="ml67itCTCTXLGi3z6Jt4-14" value="" style="endArrow=none;html=1;rounded=0;fontSize=20;entryX=1;entryY=0.5;entryDx=0;entryDy=0;strokeColor=default;" edge="1" parent="1" target="ml67itCTCTXLGi3z6Jt4-3">
          <mxGeometry width="50" height="50" relative="1" as="geometry">
            <mxPoint x="2151" y="553.25" as="sourcePoint" />
            <mxPoint x="1768" y="815.25" as="targetPoint" />
          </mxGeometry>
        </mxCell>
        <mxCell id="ml67itCTCTXLGi3z6Jt4-18" value="&#xa;&amp;lt;&amp;lt;include&amp;gt;&amp;gt;&#xa;&#xa;" style="endArrow=open;dashed=1;html=1;rounded=0;fontSize=23;strokeWidth=3;endFill=0;entryX=0.5;entryY=1;entryDx=0;entryDy=0;exitX=1;exitY=0;exitDx=0;exitDy=0;" edge="1" parent="1" source="ml67itCTCTXLGi3z6Jt4-6" target="4kPWv2rLGDj7vnWJvMpO-44">
          <mxGeometry x="-0.3155" width="50" height="50" relative="1" as="geometry">
            <mxPoint x="740" y="580" as="sourcePoint" />
            <mxPoint x="1119.2893218813451" y="345.35533905932743" as="targetPoint" />
            <mxPoint y="1" as="offset" />
          </mxGeometry>
        </mxCell>
        <mxCell id="ml67itCTCTXLGi3z6Jt4-20" value="USER" style="shape=umlActor;verticalLabelPosition=bottom;verticalAlign=top;html=1;outlineConnect=0;fontSize=20;strokeColor=default;" vertex="1" parent="1">
          <mxGeometry x="2157" y="125.75" width="40" height="90" as="geometry" />
        </mxCell>
        <mxCell id="ml67itCTCTXLGi3z6Jt4-21" value="Mengelola Profil Pribadi" style="ellipse;whiteSpace=wrap;html=1;fontSize=23;strokeColor=default;" vertex="1" parent="1">
          <mxGeometry x="1780" y="123" width="184" height="110" as="geometry" />
        </mxCell>
        <mxCell id="ml67itCTCTXLGi3z6Jt4-27" value="Menambah" style="ellipse;whiteSpace=wrap;html=1;fontSize=23;" vertex="1" parent="1">
          <mxGeometry x="1550" y="-40" width="120" height="80" as="geometry" />
        </mxCell>
        <mxCell id="ml67itCTCTXLGi3z6Jt4-28" value="Menghapus" style="ellipse;whiteSpace=wrap;html=1;fontSize=23;" vertex="1" parent="1">
          <mxGeometry x="1520" y="80" width="120" height="80" as="geometry" />
        </mxCell>
        <mxCell id="ml67itCTCTXLGi3z6Jt4-29" value="Daftar" style="ellipse;whiteSpace=wrap;html=1;fontSize=23;" vertex="1" parent="1">
          <mxGeometry x="1520" y="210" width="120" height="80" as="geometry" />
        </mxCell>
        <mxCell id="ml67itCTCTXLGi3z6Jt4-30" value="Mengirim" style="ellipse;whiteSpace=wrap;html=1;fontSize=23;" vertex="1" parent="1">
          <mxGeometry x="1530" y="320" width="120" height="80" as="geometry" />
        </mxCell>
        <mxCell id="ml67itCTCTXLGi3z6Jt4-31" value="" style="endArrow=open;dashed=1;html=1;rounded=0;fontSize=23;endFill=0;strokeWidth=3;entryX=0.5;entryY=0;entryDx=0;entryDy=0;exitX=1;exitY=1;exitDx=0;exitDy=0;" edge="1" parent="1" source="ml67itCTCTXLGi3z6Jt4-27" target="ml67itCTCTXLGi3z6Jt4-21">
          <mxGeometry width="50" height="50" relative="1" as="geometry">
            <mxPoint x="1841.66" y="-1" as="sourcePoint" />
            <mxPoint x="1660.0000000000002" y="101.00000000000023" as="targetPoint" />
            <Array as="points" />
          </mxGeometry>
        </mxCell>
        <mxCell id="ml67itCTCTXLGi3z6Jt4-32" value="&amp;lt;&amp;lt;extends&amp;gt;&amp;gt;" style="text;html=1;align=center;verticalAlign=middle;resizable=0;points=[];autosize=1;strokeColor=none;fillColor=none;fontSize=23;" vertex="1" parent="1">
          <mxGeometry x="1690" y="21" width="144" height="32" as="geometry" />
        </mxCell>
        <mxCell id="ml67itCTCTXLGi3z6Jt4-33" value="" style="endArrow=open;dashed=1;html=1;rounded=0;fontSize=23;endFill=0;strokeWidth=3;entryX=0.021;entryY=0.34;entryDx=0;entryDy=0;exitX=1;exitY=0.5;exitDx=0;exitDy=0;entryPerimeter=0;" edge="1" parent="1" source="ml67itCTCTXLGi3z6Jt4-28" target="ml67itCTCTXLGi3z6Jt4-21">
          <mxGeometry width="50" height="50" relative="1" as="geometry">
            <mxPoint x="1662.4264068712137" y="38.28427124747577" as="sourcePoint" />
            <mxPoint x="1882" y="133" as="targetPoint" />
            <Array as="points" />
          </mxGeometry>
        </mxCell>
        <mxCell id="ml67itCTCTXLGi3z6Jt4-34" value="" style="endArrow=open;dashed=1;html=1;rounded=0;fontSize=23;endFill=0;strokeWidth=3;entryX=0.061;entryY=0.721;entryDx=0;entryDy=0;exitX=1;exitY=0.5;exitDx=0;exitDy=0;entryPerimeter=0;" edge="1" parent="1" source="ml67itCTCTXLGi3z6Jt4-29" target="ml67itCTCTXLGi3z6Jt4-21">
          <mxGeometry width="50" height="50" relative="1" as="geometry">
            <mxPoint x="1672.4264068712137" y="48.28427124747577" as="sourcePoint" />
            <mxPoint x="1892" y="143" as="targetPoint" />
            <Array as="points" />
          </mxGeometry>
        </mxCell>
        <mxCell id="ml67itCTCTXLGi3z6Jt4-35" value="" style="endArrow=open;dashed=1;html=1;rounded=0;fontSize=23;endFill=0;strokeWidth=3;entryX=0.288;entryY=0.969;entryDx=0;entryDy=0;exitX=1;exitY=0.5;exitDx=0;exitDy=0;entryPerimeter=0;" edge="1" parent="1" source="ml67itCTCTXLGi3z6Jt4-30" target="ml67itCTCTXLGi3z6Jt4-21">
          <mxGeometry width="50" height="50" relative="1" as="geometry">
            <mxPoint x="1649.9999999999854" y="260" as="sourcePoint" />
            <mxPoint x="1817.0643480892359" y="226.96139114645803" as="targetPoint" />
            <Array as="points" />
          </mxGeometry>
        </mxCell>
        <mxCell id="ml67itCTCTXLGi3z6Jt4-37" value="&amp;lt;&amp;lt;extends&amp;gt;&amp;gt;" style="text;html=1;align=center;verticalAlign=middle;resizable=0;points=[];autosize=1;strokeColor=none;fillColor=none;fontSize=23;" vertex="1" parent="1">
          <mxGeometry x="1620" y="190" width="144" height="32" as="geometry" />
        </mxCell>
        <mxCell id="ml67itCTCTXLGi3z6Jt4-38" value="&amp;lt;&amp;lt;extends&amp;gt;&amp;gt;" style="text;html=1;align=center;verticalAlign=middle;resizable=0;points=[];autosize=1;strokeColor=none;fillColor=none;fontSize=23;" vertex="1" parent="1">
          <mxGeometry x="1700" y="318" width="144" height="32" as="geometry" />
        </mxCell>
        <mxCell id="ml67itCTCTXLGi3z6Jt4-39" value="&amp;lt;&amp;lt;extends&amp;gt;&amp;gt;" style="text;html=1;align=center;verticalAlign=middle;resizable=0;points=[];autosize=1;strokeColor=none;fillColor=none;fontSize=23;" vertex="1" parent="1">
          <mxGeometry x="1640" y="93.75" width="144" height="32" as="geometry" />
        </mxCell>
        <mxCell id="ml67itCTCTXLGi3z6Jt4-40" value="" style="endArrow=open;dashed=1;html=1;rounded=0;fontSize=23;strokeWidth=3;endFill=0;exitX=0;exitY=0.5;exitDx=0;exitDy=0;entryX=1;entryY=0;entryDx=0;entryDy=0;" edge="1" parent="1" source="ml67itCTCTXLGi3z6Jt4-28" target="4kPWv2rLGDj7vnWJvMpO-44">
          <mxGeometry width="50" height="50" relative="1" as="geometry">
            <mxPoint x="1744.1070237620852" y="599.1454263874793" as="sourcePoint" />
            <mxPoint x="730" y="706.0000000000002" as="targetPoint" />
          </mxGeometry>
        </mxCell>
        <mxCell id="ml67itCTCTXLGi3z6Jt4-41" value="&amp;lt;&amp;lt;include&amp;gt;&amp;gt;" style="edgeLabel;html=1;align=center;verticalAlign=middle;resizable=0;points=[];fontSize=23;" vertex="1" connectable="0" parent="ml67itCTCTXLGi3z6Jt4-40">
          <mxGeometry x="-0.2004" relative="1" as="geometry">
            <mxPoint as="offset" />
          </mxGeometry>
        </mxCell>
        <mxCell id="ml67itCTCTXLGi3z6Jt4-42" value="" style="endArrow=open;dashed=1;html=1;rounded=0;fontSize=23;strokeWidth=3;endFill=0;exitX=0;exitY=0.5;exitDx=0;exitDy=0;entryX=1;entryY=1;entryDx=0;entryDy=0;" edge="1" parent="1" source="ml67itCTCTXLGi3z6Jt4-30" target="4kPWv2rLGDj7vnWJvMpO-44">
          <mxGeometry width="50" height="50" relative="1" as="geometry">
            <mxPoint x="1794.1070237620852" y="379.99542638747937" as="sourcePoint" />
            <mxPoint x="780" y="486.85000000000025" as="targetPoint" />
          </mxGeometry>
        </mxCell>
        <mxCell id="ml67itCTCTXLGi3z6Jt4-43" value="&amp;lt;&amp;lt;include&amp;gt;&amp;gt;" style="edgeLabel;html=1;align=center;verticalAlign=middle;resizable=0;points=[];fontSize=23;" vertex="1" connectable="0" parent="ml67itCTCTXLGi3z6Jt4-42">
          <mxGeometry x="-0.2004" relative="1" as="geometry">
            <mxPoint as="offset" />
          </mxGeometry>
        </mxCell>
        <mxCell id="ml67itCTCTXLGi3z6Jt4-44" value="" style="endArrow=open;dashed=1;html=1;rounded=0;fontSize=23;strokeWidth=3;endFill=0;exitX=0;exitY=0.5;exitDx=0;exitDy=0;entryX=1;entryY=0.5;entryDx=0;entryDy=0;" edge="1" parent="1" source="ml67itCTCTXLGi3z6Jt4-29" target="4kPWv2rLGDj7vnWJvMpO-44">
          <mxGeometry width="50" height="50" relative="1" as="geometry">
            <mxPoint x="1814.1070237620852" y="183.14542638747935" as="sourcePoint" />
            <mxPoint x="800" y="290.0000000000002" as="targetPoint" />
          </mxGeometry>
        </mxCell>
        <mxCell id="ml67itCTCTXLGi3z6Jt4-45" value="&amp;lt;&amp;lt;include&amp;gt;&amp;gt;" style="edgeLabel;html=1;align=center;verticalAlign=middle;resizable=0;points=[];fontSize=23;" vertex="1" connectable="0" parent="ml67itCTCTXLGi3z6Jt4-44">
          <mxGeometry x="-0.2004" relative="1" as="geometry">
            <mxPoint as="offset" />
          </mxGeometry>
        </mxCell>
        <mxCell id="ml67itCTCTXLGi3z6Jt4-46" value="" style="endArrow=open;dashed=1;html=1;rounded=0;fontSize=23;strokeWidth=3;endFill=0;exitX=0;exitY=0.5;exitDx=0;exitDy=0;entryX=0.665;entryY=0.032;entryDx=0;entryDy=0;entryPerimeter=0;" edge="1" parent="1" source="ml67itCTCTXLGi3z6Jt4-27" target="4kPWv2rLGDj7vnWJvMpO-44">
          <mxGeometry width="50" height="50" relative="1" as="geometry">
            <mxPoint x="1774.1070237620852" y="629.1454263874793" as="sourcePoint" />
            <mxPoint x="760" y="736.0000000000002" as="targetPoint" />
          </mxGeometry>
        </mxCell>
        <mxCell id="ml67itCTCTXLGi3z6Jt4-47" value="&amp;lt;&amp;lt;include&amp;gt;&amp;gt;" style="edgeLabel;html=1;align=center;verticalAlign=middle;resizable=0;points=[];fontSize=23;" vertex="1" connectable="0" parent="ml67itCTCTXLGi3z6Jt4-46">
          <mxGeometry x="-0.2004" relative="1" as="geometry">
            <mxPoint as="offset" />
          </mxGeometry>
        </mxCell>
        <mxCell id="ml67itCTCTXLGi3z6Jt4-48" value="" style="endArrow=none;html=1;rounded=0;fontSize=20;entryX=1;entryY=0.5;entryDx=0;entryDy=0;strokeColor=default;" edge="1" parent="1" target="ml67itCTCTXLGi3z6Jt4-21">
          <mxGeometry width="50" height="50" relative="1" as="geometry">
            <mxPoint x="2150" y="170" as="sourcePoint" />
            <mxPoint x="1910" y="160" as="targetPoint" />
          </mxGeometry>
        </mxCell>
      </root>
    </mxGraphModel>
  </diagram>
  <diagram id="OXqfgw8vIjeBr7j7MvPP" name="Sequence">
    <mxGraphModel dx="1117" dy="564" grid="1" gridSize="10" guides="1" tooltips="1" connect="1" arrows="1" fold="1" page="1" pageScale="1" pageWidth="850" pageHeight="1100" math="0" shadow="0">
      <root>
        <mxCell id="0" />
        <mxCell id="1" parent="0" />
      </root>
    </mxGraphModel>
  </diagram>
</mxfile>
